<?xml version="1.0" encoding="UTF-8" standalone="no"?>
<svg width="86px" height="110px" viewBox="0 0 86 110" version="1.1" xmlns="http://www.w3.org/2000/svg" xmlns:xlink="http://www.w3.org/1999/xlink" xmlns:sketch="http://www.bohemiancoding.com/sketch/ns">
    <!-- Generator: Sketch 3.2.2 (9983) - http://www.bohemiancoding.com/sketch -->
    <title>Artboard 1</title>
    <desc>Created with Sketch.</desc>
    <defs></defs>
    <g id="Page-1" stroke="none" stroke-width="1" fill="none" fill-rule="evenodd" sketch:type="MSPage">
        <g id="Artboard-1" sketch:type="MSArtboardGroup">
            <path d="M67.5944084,1 L11.0073123,1 C5.4865077,1 1,5.47308286 1,10.9909102 L1,99.0090898 C1,104.530958 5.48042632,109 11.0073123,109 L74.9926877,109 C80.5134923,109 85,104.526917 85,99.0090898 L85,18.4055916 L67.5944084,1 L67.5944084,1 Z" id="Rectangle-1" fill="#FFFFFF" sketch:type="MSShapeGroup"></path>
            <path d="M85.4,16.6 L69.4,0.6 C69,0.2 68.5,0 68,0 L10.5,0 C5,0 0,4 0,9.5 L0,99.5 C0,105 5,110 10.5,110 L76.5,110 C82,110 86,105 86,99.5 L86,18 C86,17.5 85.8,17 85.4,16.6 L85.4,16.6 Z M70,6.8 L79.2,16 L75.5,16 C72.2,16 70,13.8 70,10.5 L70,6.8 L70,6.8 Z M82,99.5 C82,102.8 79.8,106 76.5,106 L10.5,106 C7.2,106 4,102.8 4,99.5 L4,9.5 C4,6.2 7.2,4 10.5,4 L66,4 L66,10.5 C66,16 70,20 75.5,20 L82,20 L82,99.5 L82,99.5 Z" id="Shape" fill="#C0C0C0" sketch:type="MSShapeGroup"></path>
        </g>
    </g>
</svg>